<?xml version="1.0"?>

<svg xmlns="http://www.w3.org/2000/svg" width="50" height="100" style="fill: orange; stroke: black">
  <ellipse cx="31" cy="65" rx="3" ry="10" transform="rotate(-20, 31, 65)" />
  <ellipse cx="19" cy="65" rx="3" ry="10" transform="rotate(20, 19, 65)" />

  <ellipse cx="38" cy="35" rx="10" ry="3" transform="rotate(-40, 38, 35)" />
  <ellipse cx="12" cy="35" rx="10" ry="3" transform="rotate(40, 12, 35)" />

  <path d="M 13 8 l 3 -8 l 3 8 l 3 -5 l 3 5 l 3 -8 l 3 8 l 3 -5 l 3 5 Q 25 40 13 8" />

  <g style="fill: white">
    <circle cx="21" cy="12" r="3" />
    <circle cx="29" cy="12" r="3" />
  </g>

  <g style="fill:black">
    <circle cx="22" cy="13" r="1" />
    <circle cx="30" cy="13" r="1" />
  </g>
  
  <path d="M 21 16 Q 25 20 29 16" />

  <ellipse cx="25" cy="40" rx="11" ry="20" />
</svg>
