<?xml version="1.0"?>

<svg xmlns="http://www.w3.org/2000/svg" width="50" height="100" style="fill: orange; stroke: black">
  <ellipse cx="35" cy="83" rx="3" ry="10" transform="rotate(-20, 35, 83)" />
  <ellipse cx="15" cy="83" rx="3" ry="10" transform="rotate(20, 15, 83)" />

  <ellipse cx="42" cy="35" rx="10" ry="3" transform="rotate(-40, 42, 35)" />
  <ellipse cx="8" cy="35" rx="10" ry="3" transform="rotate(40, 8, 35)" />

  <path d="M 13 8 l 3 -8 l 3 8 l 3 -5 l 3 5 l 3 -8 l 3 8 l 3 -5 l 3 5 Q 25 40 13 8" />

  <g style="fill: white">
    <circle cx="21" cy="14" r="3" />
    <circle cx="29" cy="14" r="3" />
  </g>

  <g style="fill:black">
    <circle cx="22" cy="15" r="1" />
    <circle cx="30" cy="15" r="1" />
  </g>

  <ellipse cx="25" cy="52" rx="15" ry="29" />
</svg>
