<?xml version="1.0"?>

<svg xmlns="http://www.w3.org/2000/svg" width="100" height="50" style="fill: orange; stroke: black">
  <ellipse cx="35" cy="47" rx="5" ry="2" />
  <ellipse cx="70" cy="47" rx="5" ry="2" />

  <rect x="30" y="32" width="10" height="15" />
  <rect x="65" y="32" width="10" height="15" />

  <path d="M 22 22 l -2 -7 l 7 2 l -2 -6 l 7 2 l -1 -7 l 7 4 l 1 -7 l 6 5 l 2 -7 l 4 5 l 4 -5 l 3 6 l 4 -5 l 3 6 l 4 -4 l 1 7" />

  <path d="M 2 22 q 5 -5 10 0 q 5 5 10 0 q 25 -25 50 -10 q 5 -5 15 2 l 5 0 q 5 0 5 5 l -10 5 l 10 5 q 0 5 -5 5 l -10 0 q -30 8 -60 0 q -15 2 -20 -10 z" />

  <circle cx="87" cy="18" r="1" style="fill: black" />

  <line x1="87" y1="14" x2="85" y2="10" />
  <line x1="87" y1="14" x2="90" y2="10" />
  <line x1="87" y1="14" x2="88" y2="10" />
  <line x1="87" y1="14" x2="92" y2="12" />
</svg>
