<?xml version="1.0"?>

<svg xmlns="http://www.w3.org/2000/svg" width="100" height="100" style="stroke: black">
  <defs>
    <pattern id="polkadots" width="10" height="10" patternUnits="userSpaceOnUse">
      <rect x="0" y="0" width="10" height="10" style="fill: mediumorchid; stroke: none" />
      <g style="fill: black; stroke: none">
        <circle cx="7" cy="2" r="1" />
        <circle cx="2" cy="5" r="1" />
      </g>
    </pattern>
  </defs>

  <g style="fill: url(#polkadots)">
    <path d="M 50 70 q -40 25 -35 -20 q -25 -40 35 -20" />
    <path d="M 50 70 q 40 25 35 -20 q 25 -40 -35 -20" />
  </g>

  <g style="fill: palegreen">
    <path d="M 50 70 q -30 10 -30 -20 q -10 -30 30 -20" />
    <path d="M 50 70 q 30 10 30 -20 q 10 -30 -30 -20" />
  </g>

  <g style="fill: none">
    <path d="M 50 30 q 0 -15 -10 -25" />
    <path d="M 50 30 q 0 -15 10 -25" />

    <circle cx="40" cy="7.3" r="2" />
    <circle cx="60" cy="7.3" r="2" />
  </g>

  <ellipse cx="50" cy="50" rx="5" ry="20" style="fill: black" />
</svg>
