<?xml version="1.0"?>
<svg xmlns="http://www.w3.org/2000/svg" width="100" height="100" style="fill: indigo; stroke: black">
  <path d="M 20 45 q -10 -10 -5 -25 q 15 10 15 15" />
  <path d="M 80 45 q 10 -10 5 -25 q -15 10 -15 15" />

  <path d="M 25 80 l -3 10 l 3 -2 l 2 5 l 3 -2 l 2 4 l 3 -10 z" />
  <path d="M 75 80 l 3 10 l -3 -2 l -2 5 l -3 -2 l -2 4 l -3 -10 z" />

  <ellipse cx="50" cy="60" rx="40" ry="30" style="fill: slateblue" />

  <g style="fill: white; stroke: none">
    <circle cx="44" cy="64" r="4" />
    <circle cx="64" cy="64" r="4" />
  </g>

  <g style="fill: none">
    <g style="stroke: indigo; stroke-width: 2">
      <circle cx="40" cy="60" r="10" />
      <circle cx="60" cy="60" r="10" />
    </g>
  </g>

  <g style="stroke: none">
    <circle cx="50" cy="69" r="4" />
  </g>
</svg>
